<?xml version="1.0" encoding="UTF-8"?><svg id="Capa_2" xmlns="http://www.w3.org/2000/svg" viewBox="0 0 1920 1080"><defs><style>.cls-1{fill:#ec607e;}.cls-1,.cls-2,.cls-3{stroke-width:0px;}.cls-2{fill:#203565;}.cls-3{fill:#fff;}</style></defs><g id="Fons"><rect class="cls-3" width="1920" height="1080"/><path class="cls-1" d="M772.72,636.56c3.31-1.55,5.84-3.78,7.59-6.7,1.75-2.91,2.62-6.4,2.62-10.45s-.86-7.55-2.58-10.54c-1.72-2.99-4.22-5.31-7.49-6.95-3.27-1.64-7.21-2.46-11.82-2.46h-24.1v61.08h12.92v-21.65h9.43l11.57,21.65h14.26l-12.97-23.75c.19-.08.4-.14.58-.23ZM749.86,610.02h8.71c2.48,0,4.55.36,6.19,1.09,1.64.73,2.86,1.79,3.66,3.18.81,1.39,1.21,3.1,1.21,5.13s-.4,3.69-1.21,5.04c-.81,1.35-2.02,2.37-3.65,3.04-1.63.67-3.68,1.01-6.14,1.01h-8.77v-18.49Z"/><path class="cls-1" d="M826.89,617.8c-1.82-1.25-3.9-2.18-6.23-2.77-2.34-.6-4.78-.9-7.32-.9-3.65,0-6.87.55-9.64,1.65-2.77,1.11-5.04,2.68-6.79,4.71-1.75,2.04-2.92,4.45-3.52,7.23l11.75.96c.44-1.51,1.33-2.77,2.69-3.77,1.35-1.01,3.17-1.51,5.46-1.51,2.17,0,3.84.52,5.02,1.55,1.18,1.04,1.77,2.5,1.77,4.39v.18c0,.98-.37,1.71-1.1,2.21-.74.5-1.92.87-3.55,1.12-1.63.25-3.78.51-6.44.79-2.26.22-4.43.6-6.49,1.13-2.06.53-3.89,1.33-5.5,2.38-1.61,1.05-2.88,2.45-3.82,4.18-.93,1.73-1.4,3.87-1.4,6.41,0,3.02.66,5.54,1.99,7.56,1.32,2.02,3.13,3.54,5.41,4.56,2.28,1.02,4.89,1.54,7.81,1.54,2.26,0,4.26-.3,5.99-.91,1.73-.6,3.21-1.45,4.44-2.53,1.23-1.09,2.22-2.34,2.95-3.77h.36v6.35h12.05v-30.9c0-2.72-.52-5.06-1.58-7.02s-2.49-3.57-4.31-4.82ZM820.16,644.16c0,1.61-.41,3.06-1.22,4.33-.81,1.28-1.94,2.28-3.37,3.03-1.43.75-3.08,1.12-4.95,1.12s-3.55-.45-4.82-1.36c-1.26-.9-1.89-2.22-1.89-3.95,0-1.2.31-2.19.93-3,.61-.8,1.48-1.44,2.59-1.92,1.12-.48,2.42-.83,3.91-1.05.69-.1,1.47-.21,2.32-.34.86-.13,1.71-.28,2.57-.45.85-.17,1.62-.36,2.31-.57.68-.21,1.23-.45,1.63-.7v4.86Z"/><path class="cls-1" d="M868.54,614.07c-2.57,0-4.83.73-6.8,2.19-1.97,1.46-3.37,3.61-4.2,6.46h-.48v-7.99h-12.32v45.81h12.7v-25.92c0-1.87.43-3.52,1.27-4.95.84-1.43,2-2.55,3.46-3.36,1.46-.81,3.13-1.21,5-1.21.88,0,1.84.07,2.89.21,1.05.14,1.88.3,2.47.47v-11.27c-.55-.14-1.2-.25-1.94-.33s-1.42-.12-2.06-.12Z"/><path class="cls-1" d="M914.7,619.92c-1.96-1.93-4.25-3.37-6.86-4.34-2.62-.96-5.44-1.45-8.46-1.45-4.49,0-8.4.99-11.73,2.98-3.33,1.99-5.91,4.76-7.74,8.32s-2.74,7.7-2.74,12.4.91,9.01,2.74,12.54c1.83,3.53,4.44,6.25,7.83,8.17,3.39,1.92,7.44,2.88,12.16,2.88,3.78,0,7.11-.58,10.01-1.74,2.89-1.17,5.26-2.79,7.1-4.89,1.84-2.1,3.06-4.56,3.65-7.38l-11.75-.77c-.44,1.15-1.07,2.13-1.91,2.92-.83.8-1.84,1.39-3.01,1.79-1.17.4-2.47.6-3.88.6-2.13,0-3.96-.45-5.52-1.34-1.55-.9-2.75-2.17-3.59-3.82-.84-1.65-1.26-3.61-1.26-5.87v-.03h31.19v-3.49c0-3.9-.55-7.3-1.64-10.22-1.09-2.91-2.62-5.33-4.58-7.26ZM889.79,633.01c.08-1.64.46-3.16,1.23-4.52.83-1.48,2-2.66,3.48-3.55,1.48-.89,3.18-1.33,5.11-1.33s3.47.4,4.87,1.21c1.41.8,2.5,1.91,3.3,3.32.79,1.41,1.19,3.03,1.19,4.86h-19.18Z"/><path class="cls-1" d="M990.82,603.11c-4.43-2.44-9.72-3.66-15.87-3.66h-21.83v61.08h21.65c6.2,0,11.54-1.22,16-3.67,4.46-2.45,7.89-5.95,10.29-10.52,2.39-4.57,3.59-10.04,3.59-16.4s-1.2-11.79-3.59-16.34c-2.4-4.56-5.81-8.05-10.24-10.48ZM989.79,641.08c-1.32,2.87-3.29,4.99-5.91,6.35-2.62,1.36-5.83,2.04-9.64,2.04h-8.2v-38.95h8.23c3.82,0,7.03.68,9.64,2.03,2.61,1.35,4.56,3.46,5.89,6.32,1.32,2.86,1.99,6.55,1.99,11.07s-.66,8.27-1.99,11.14Z"/><rect class="cls-1" x="1016.06" y="614.72" width="12.71" height="45.81"/><path class="cls-1" d="M1022.44,595.97c-1.89,0-3.51.63-4.85,1.89-1.35,1.26-2.02,2.77-2.02,4.52s.67,3.28,2.02,4.54c1.34,1.27,2.96,1.89,4.85,1.89s3.5-.63,4.84-1.89c1.34-1.26,2.01-2.77,2.01-4.54s-.67-3.26-2.01-4.52c-1.35-1.27-2.96-1.89-4.84-1.89Z"/><path class="cls-1" d="M1066.92,633.93l-8.29-1.67c-2.13-.45-3.63-1.06-4.5-1.82-.88-.75-1.31-1.68-1.31-2.77,0-1.37.67-2.47,2.03-3.29,1.35-.82,3.01-1.24,4.98-1.24,1.47,0,2.74.24,3.81.73,1.06.49,1.92,1.13,2.58,1.94.66.8,1.08,1.7,1.28,2.69l11.63-.71c-.56-4.22-2.5-7.55-5.83-9.99-3.33-2.45-7.89-3.67-13.67-3.67-3.92,0-7.33.58-10.24,1.73-2.92,1.15-5.17,2.79-6.77,4.92-1.6,2.13-2.4,4.66-2.4,7.61,0,3.42,1.09,6.23,3.27,8.44,2.17,2.21,5.5,3.76,9.97,4.65l7.93,1.58c1.99.4,3.46.97,4.41,1.72s1.44,1.7,1.46,2.85c-.02,1.37-.71,2.49-2.07,3.35-1.36.87-3.16,1.3-5.38,1.3s-4.12-.48-5.58-1.44c-1.45-.97-2.37-2.37-2.75-4.22l-12.49.66c.62,4.38,2.72,7.83,6.31,10.37,3.59,2.53,8.42,3.8,14.48,3.8,3.97,0,7.49-.63,10.54-1.89,3.05-1.26,5.46-3.03,7.22-5.3,1.76-2.26,2.64-4.9,2.64-7.9,0-3.3-1.09-5.97-3.28-8-2.18-2.02-5.51-3.5-9.96-4.41Z"/><path class="cls-1" d="M1125.96,619.92c-1.96-1.93-4.25-3.37-6.86-4.34-2.62-.96-5.43-1.45-8.45-1.45-4.49,0-8.4.99-11.73,2.98-3.33,1.99-5.91,4.76-7.74,8.32-1.83,3.56-2.75,7.7-2.75,12.4s.91,9.01,2.75,12.54c1.83,3.53,4.44,6.25,7.83,8.17,3.39,1.92,7.44,2.88,12.15,2.88,3.78,0,7.11-.58,10.01-1.74,2.9-1.17,5.26-2.79,7.1-4.89,1.84-2.1,3.06-4.56,3.65-7.38l-11.75-.77c-.44,1.15-1.07,2.13-1.91,2.92-.83.8-1.84,1.39-3.01,1.79-1.17.4-2.47.6-3.88.6-2.13,0-3.97-.45-5.52-1.34-1.55-.9-2.75-2.17-3.59-3.82-.85-1.65-1.27-3.61-1.27-5.87v-.03h31.2v-3.49c0-3.9-.55-7.3-1.64-10.22-1.1-2.91-2.62-5.33-4.58-7.26ZM1101.04,633.01c.08-1.64.46-3.16,1.23-4.52.83-1.48,1.99-2.66,3.47-3.55,1.48-.89,3.19-1.33,5.12-1.33s3.47.4,4.87,1.21c1.4.8,2.5,1.91,3.29,3.32.8,1.41,1.19,3.03,1.19,4.86h-19.18Z"/><path class="cls-1" d="M1175.54,617.8c-1.82-1.25-3.9-2.18-6.23-2.77-2.34-.6-4.78-.9-7.32-.9-3.66,0-6.87.55-9.65,1.65-2.77,1.11-5.04,2.68-6.79,4.71-1.75,2.04-2.92,4.45-3.52,7.23l11.75.96c.44-1.51,1.33-2.77,2.68-3.77,1.35-1.01,3.17-1.51,5.46-1.51,2.17,0,3.84.52,5.02,1.55,1.18,1.04,1.78,2.5,1.78,4.39v.18c0,.98-.37,1.71-1.11,2.21-.74.5-1.92.87-3.55,1.12-1.63.25-3.78.51-6.44.79-2.26.22-4.43.6-6.49,1.13-2.06.53-3.89,1.33-5.5,2.38-1.61,1.05-2.88,2.45-3.82,4.18-.94,1.73-1.4,3.87-1.4,6.41,0,3.02.66,5.54,1.98,7.56,1.32,2.02,3.13,3.54,5.41,4.56,2.29,1.02,4.89,1.54,7.81,1.54,2.27,0,4.27-.3,5.99-.91,1.73-.6,3.21-1.45,4.44-2.53,1.23-1.09,2.22-2.34,2.95-3.77h.36v6.35h12.05v-30.9c0-2.72-.53-5.06-1.58-7.02-1.05-1.96-2.49-3.57-4.31-4.82ZM1168.81,644.16c0,1.61-.41,3.06-1.22,4.33-.81,1.28-1.94,2.28-3.37,3.03-1.43.75-3.08,1.12-4.95,1.12s-3.55-.45-4.81-1.36c-1.27-.9-1.89-2.22-1.89-3.95,0-1.2.3-2.19.92-3,.61-.8,1.48-1.44,2.6-1.92,1.11-.48,2.41-.83,3.9-1.05.7-.1,1.47-.21,2.33-.34.85-.13,1.71-.28,2.56-.45.85-.17,1.63-.36,2.31-.57.68-.21,1.23-.45,1.63-.7v4.86Z"/><path class="cls-1" d="M1219.31,633.93l-8.29-1.67c-2.13-.45-3.63-1.06-4.5-1.82-.88-.75-1.31-1.68-1.31-2.77,0-1.37.68-2.47,2.03-3.29,1.35-.82,3.01-1.24,4.98-1.24,1.47,0,2.74.24,3.81.73,1.06.49,1.92,1.13,2.58,1.94.66.8,1.08,1.7,1.28,2.69l11.63-.71c-.56-4.22-2.5-7.55-5.83-9.99-3.33-2.45-7.89-3.67-13.67-3.67-3.92,0-7.33.58-10.24,1.73-2.91,1.15-5.17,2.79-6.77,4.92-1.6,2.13-2.4,4.66-2.4,7.61,0,3.42,1.09,6.23,3.27,8.44,2.17,2.21,5.5,3.76,9.97,4.65l7.93,1.58c1.99.4,3.46.97,4.41,1.72s1.44,1.7,1.46,2.85c-.02,1.37-.71,2.49-2.07,3.35-1.36.87-3.16,1.3-5.38,1.3s-4.12-.48-5.58-1.44c-1.45-.97-2.37-2.37-2.75-4.22l-12.49.66c.62,4.38,2.72,7.83,6.31,10.37,3.59,2.53,8.42,3.8,14.48,3.8,3.97,0,7.49-.63,10.54-1.89,3.05-1.26,5.46-3.03,7.22-5.3,1.76-2.26,2.64-4.9,2.64-7.9,0-3.3-1.09-5.97-3.28-8-2.18-2.02-5.51-3.5-9.96-4.41Z"/><path class="cls-1" d="M1278.36,619.92c-1.96-1.93-4.25-3.37-6.86-4.34-2.62-.96-5.43-1.45-8.45-1.45-4.49,0-8.4.99-11.73,2.98-3.33,1.99-5.91,4.76-7.74,8.32-1.83,3.56-2.75,7.7-2.75,12.4s.91,9.01,2.75,12.54c1.83,3.53,4.44,6.25,7.83,8.17,3.39,1.92,7.44,2.88,12.15,2.88,3.78,0,7.11-.58,10.01-1.74,2.9-1.17,5.26-2.79,7.1-4.89,1.84-2.1,3.05-4.56,3.65-7.38l-11.75-.77c-.44,1.15-1.07,2.13-1.91,2.92-.83.8-1.84,1.39-3.01,1.79-1.17.4-2.47.6-3.88.6-2.13,0-3.97-.45-5.52-1.34-1.55-.9-2.75-2.17-3.59-3.82-.85-1.65-1.27-3.61-1.27-5.87v-.03h31.2v-3.49c0-3.9-.55-7.3-1.64-10.22-1.1-2.91-2.62-5.33-4.58-7.26ZM1253.43,633.01c.08-1.64.46-3.16,1.23-4.52.83-1.48,1.99-2.66,3.47-3.55,1.48-.89,3.19-1.33,5.12-1.33s3.47.4,4.87,1.21c1.4.8,2.5,1.91,3.29,3.32.8,1.41,1.2,3.03,1.2,4.86h-19.18Z"/><path class="cls-1" d="M1330.84,638.34c-2.18-2.02-5.51-3.5-9.96-4.41l-8.29-1.67c-2.13-.45-3.63-1.06-4.5-1.82-.88-.75-1.31-1.68-1.31-2.77,0-1.37.67-2.47,2.03-3.29,1.35-.82,3.01-1.24,4.98-1.24,1.47,0,2.74.24,3.81.73,1.06.49,1.92,1.13,2.58,1.94.66.8,1.08,1.7,1.28,2.69l11.63-.71c-.56-4.22-2.5-7.55-5.83-9.99-3.33-2.45-7.89-3.67-13.67-3.67-3.92,0-7.33.58-10.24,1.73-2.91,1.15-5.17,2.79-6.77,4.92-1.6,2.13-2.4,4.66-2.4,7.61,0,3.42,1.09,6.23,3.27,8.44,2.17,2.21,5.5,3.76,9.97,4.65l7.93,1.58c1.99.4,3.46.97,4.41,1.72.96.75,1.44,1.7,1.46,2.85-.02,1.37-.71,2.49-2.07,3.35-1.36.87-3.16,1.3-5.38,1.3s-4.12-.48-5.58-1.44c-1.45-.97-2.37-2.37-2.75-4.22l-12.49.66c.62,4.38,2.72,7.83,6.31,10.37,3.59,2.53,8.42,3.8,14.48,3.8,3.97,0,7.49-.63,10.54-1.89,3.05-1.26,5.46-3.03,7.22-5.3,1.76-2.26,2.64-4.9,2.64-7.9,0-3.3-1.09-5.97-3.28-8Z"/><polygon class="cls-2" points="355 652.6 325.56 652.6 325.56 633.9 352.65 633.9 352.65 626 325.56 626 325.56 607.39 354.64 607.39 354.64 599.46 316.35 599.46 316.35 660.53 355 660.53 355 652.6"/><path class="cls-2" d="M375.6,659.17c2.25,1.3,4.86,1.95,7.8,1.95,3.44,0,6.32-.81,8.63-2.43,2.32-1.62,4-3.65,5.06-6.1h.48v7.93h8.77v-45.81h-8.95v26.81c.02,2.61-.52,4.75-1.63,6.44-1.11,1.69-2.49,2.95-4.15,3.79s-3.32,1.25-5,1.25c-2.76,0-5.01-.92-6.74-2.77-1.73-1.85-2.59-4.33-2.59-7.46v-28.07h-8.92v29.14c0,3.78.64,6.95,1.92,9.51,1.28,2.56,3.05,4.5,5.31,5.8Z"/><path class="cls-2" d="M429.31,632.56c0-1.99.48-3.76,1.43-5.32.95-1.56,2.25-2.78,3.89-3.67,1.64-.88,3.51-1.33,5.62-1.33.91,0,1.83.07,2.74.19.91.13,1.55.24,1.91.35v-8.53c-.44-.06-1.04-.11-1.8-.15-.76-.04-1.42-.06-1.98-.06-2.69,0-5.08.71-7.2,2.13-2.12,1.42-3.59,3.37-4.43,5.83h-.48v-7.28h-8.62v45.81h8.92v-27.97Z"/><path class="cls-2" d="M483.63,658.5c3.2-1.97,5.68-4.72,7.46-8.26,1.77-3.54,2.65-7.68,2.65-12.41s-.88-8.9-2.65-12.47c-1.77-3.56-4.26-6.32-7.46-8.29-3.2-1.97-6.95-2.95-11.24-2.95s-8.04.98-11.24,2.95c-3.2,1.97-5.68,4.73-7.46,8.29-1.77,3.56-2.65,7.71-2.65,12.47s.88,8.87,2.65,12.41c1.77,3.54,4.25,6.29,7.46,8.26,3.2,1.97,6.95,2.95,11.24,2.95s8.04-.98,11.24-2.95ZM461.37,645.89c-.89-2.44-1.33-5.14-1.33-8.08s.44-5.61,1.33-8.06c.88-2.46,2.24-4.43,4.09-5.92,1.84-1.49,4.16-2.23,6.96-2.23s5.09.74,6.92,2.23c1.83,1.5,3.19,3.47,4.07,5.92.89,2.46,1.33,5.14,1.33,8.06s-.45,5.64-1.33,8.08c-.88,2.45-2.24,4.41-4.07,5.88-1.83,1.47-4.14,2.21-6.92,2.21s-5.12-.74-6.96-2.21c-1.84-1.47-3.21-3.43-4.09-5.88Z"/><path class="cls-2" d="M528.46,661.43c3.7,0,6.99-.95,9.87-2.85,2.89-1.9,5.15-4.61,6.8-8.14,1.65-3.53,2.48-7.77,2.48-12.72s-.83-9.18-2.49-12.7c-1.66-3.52-3.94-6.21-6.84-8.08-2.91-1.86-6.2-2.8-9.9-2.8-2.84,0-5.13.47-6.86,1.41-1.73.95-3.08,2.04-4.05,3.3-.97,1.25-1.72,2.35-2.24,3.31h-.75v-7.43h-8.71v62.98h8.92v-24.3h.54c.53.97,1.3,2.09,2.3,3.34.99,1.25,2.37,2.34,4.13,3.28,1.76.93,4.03,1.4,6.81,1.4ZM515.91,646.1c-.93-2.43-1.4-5.25-1.4-8.47s.45-5.97,1.37-8.35c.91-2.39,2.26-4.25,4.04-5.58,1.78-1.33,3.96-2,6.55-2s4.93.69,6.72,2.09c1.8,1.39,3.15,3.29,4.05,5.69.9,2.41,1.36,5.12,1.36,8.15s-.46,5.82-1.39,8.26c-.92,2.45-2.28,4.38-4.07,5.8-1.79,1.42-4.02,2.13-6.68,2.13s-4.73-.68-6.5-2.04c-1.77-1.36-3.12-3.25-4.05-5.68Z"/><path class="cls-2" d="M592.86,619.44c-1.93-1.83-4.11-3.17-6.53-4.03-2.43-.86-4.93-1.28-7.52-1.28-4.25,0-7.97,1-11.13,3.01-3.17,2.01-5.64,4.8-7.4,8.38-1.76,3.58-2.64,7.71-2.64,12.4s.88,8.9,2.64,12.42c1.76,3.53,4.26,6.26,7.52,8.2,3.25,1.94,7.13,2.91,11.65,2.91,3.34,0,6.32-.51,8.93-1.53,2.62-1.03,4.79-2.47,6.53-4.33,1.74-1.86,2.95-4.03,3.62-6.52l-8.44-1.52c-.54,1.43-1.31,2.63-2.32,3.61-1.02.97-2.22,1.71-3.61,2.19-1.39.49-2.93.73-4.63.73-2.61,0-4.88-.56-6.83-1.68-1.95-1.12-3.46-2.76-4.55-4.91-1-1.99-1.49-4.42-1.56-7.19h32.51v-3.16c0-4.16-.56-7.69-1.67-10.6-1.11-2.91-2.63-5.29-4.56-7.11ZM566.62,633.63c.11-1.96.53-3.82,1.41-5.53,1-1.96,2.44-3.55,4.29-4.78,1.86-1.22,4.04-1.83,6.55-1.83,2.31,0,4.32.52,6.04,1.58,1.72,1.05,3.06,2.49,4.01,4.31.95,1.82,1.43,3.9,1.43,6.25h-23.73Z"/><path class="cls-2" d="M640.9,617.11c-1.8-1.13-3.73-1.92-5.79-2.34-2.06-.43-4-.64-5.83-.64-2.76,0-5.4.39-7.9,1.18-2.51.78-4.72,2.03-6.64,3.75-1.92,1.72-3.37,3.97-4.37,6.76l8.38,1.91c.66-1.61,1.84-3.07,3.56-4.4,1.72-1.32,4.08-1.98,7.09-1.98s5.05.72,6.51,2.15c1.46,1.43,2.19,3.45,2.19,6.05v.21c0,1.07-.39,1.85-1.16,2.32-.78.48-2.02.82-3.73,1.03-1.71.21-3.94.47-6.68.79-2.17.26-4.3.64-6.38,1.13-2.09.5-3.98,1.23-5.67,2.21-1.69.98-3.03,2.3-4.03,3.97-.99,1.67-1.49,3.8-1.49,6.38,0,3,.68,5.54,2.04,7.61,1.36,2.07,3.22,3.64,5.56,4.73,2.35,1.08,4.97,1.62,7.87,1.62,2.53,0,4.7-.37,6.5-1.1s3.29-1.66,4.44-2.77c1.15-1.11,2.01-2.24,2.59-3.4h.36v6.26h8.71v-30.42c0-3.34-.58-6.06-1.73-8.15-1.15-2.1-2.63-3.72-4.43-4.85ZM638.14,644.01c0,1.81-.46,3.5-1.39,5.08-.92,1.58-2.26,2.85-4.03,3.83-1.76.97-3.87,1.46-6.34,1.46s-4.6-.56-6.23-1.68c-1.63-1.12-2.45-2.79-2.45-4.99,0-1.59.42-2.87,1.27-3.83.84-.97,1.98-1.71,3.4-2.22,1.42-.52,3-.89,4.73-1.11.74-.1,1.65-.22,2.74-.37,1.09-.15,2.22-.32,3.37-.51,1.15-.19,2.18-.42,3.09-.69.9-.27,1.51-.56,1.83-.88v5.9Z"/><path class="cls-2" d="M691.86,616.08c-2.35-1.3-5.08-1.95-8.2-1.95-3.44,0-6.29.74-8.54,2.21-2.26,1.47-3.91,3.42-4.97,5.84h-.57v-7.46h-8.56v45.81h8.92v-27.2c0-2.42.46-4.49,1.38-6.21.93-1.72,2.19-3.03,3.79-3.92,1.6-.89,3.43-1.34,5.5-1.34,3.02,0,5.4.94,7.13,2.82,1.73,1.88,2.59,4.48,2.59,7.8v28.06h8.92v-29.14c0-3.78-.65-6.95-1.94-9.51-1.29-2.57-3.11-4.5-5.46-5.8Z"/><path class="cls-2" d="M349.89,740.64c3.13-1.57,5.48-3.77,7.04-6.6,1.56-2.84,2.34-6.12,2.34-9.86s-.77-7.07-2.32-9.95c-1.55-2.87-3.89-5.12-7.02-6.75-3.13-1.63-7.06-2.45-11.79-2.45h-21.77v61.08h9.21v-23.11h12.53c.2,0,.38-.02.58-.03l12.42,23.14h10.5l-13.53-24.71c.63-.24,1.26-.47,1.83-.76ZM325.56,712.93h11.58c3.04,0,5.5.45,7.38,1.35,1.87.9,3.26,2.2,4.14,3.89.89,1.69,1.33,3.69,1.33,5.99s-.44,4.25-1.31,5.87c-.87,1.63-2.25,2.87-4.13,3.73-1.88.85-4.31,1.28-7.29,1.28h-11.69v-22.12Z"/><path class="cls-2" d="M404.49,725.01c-1.93-1.83-4.1-3.17-6.53-4.03-2.43-.86-4.93-1.28-7.52-1.28-4.25,0-7.97,1-11.14,3.01-3.17,2.01-5.64,4.8-7.4,8.38-1.76,3.58-2.64,7.71-2.64,12.4s.88,8.9,2.64,12.42c1.76,3.53,4.26,6.26,7.52,8.2,3.25,1.93,7.13,2.91,11.65,2.91,3.34,0,6.32-.51,8.93-1.53,2.61-1.03,4.79-2.47,6.53-4.33,1.74-1.86,2.95-4.03,3.62-6.52l-8.44-1.52c-.53,1.43-1.31,2.63-2.32,3.61-1.01.98-2.22,1.71-3.61,2.19-1.39.49-2.93.73-4.62.73-2.61,0-4.88-.56-6.83-1.68-1.94-1.13-3.46-2.76-4.55-4.91-1-1.99-1.49-4.42-1.57-7.19h32.51v-3.16c0-4.16-.56-7.69-1.67-10.6-1.12-2.92-2.63-5.29-4.56-7.11ZM378.25,739.21c.11-1.96.53-3.82,1.41-5.53,1.01-1.96,2.44-3.55,4.3-4.78,1.86-1.22,4.04-1.83,6.55-1.83,2.31,0,4.32.52,6.04,1.58,1.72,1.05,3.06,2.49,4.01,4.31.96,1.82,1.43,3.9,1.43,6.25h-23.74Z"/><path class="cls-2" d="M445.44,740.46l-7.28-1.67c-2.52-.6-4.35-1.36-5.49-2.3-1.13-.93-1.7-2.17-1.7-3.7,0-1.77.84-3.21,2.54-4.34,1.69-1.12,3.8-1.69,6.32-1.69,1.85,0,3.39.3,4.62.9,1.23.6,2.21,1.36,2.94,2.3.73.94,1.26,1.92,1.59,2.95l8.08-1.43c-.91-3.58-2.79-6.44-5.64-8.58-2.84-2.14-6.74-3.21-11.69-3.21-3.44,0-6.5.57-9.16,1.71-2.67,1.14-4.75,2.73-6.26,4.76-1.51,2.03-2.27,4.4-2.27,7.1,0,3.26,1.02,5.95,3.06,8.08,2.04,2.13,5.2,3.68,9.47,4.65l7.75,1.7c2.19.5,3.81,1.23,4.88,2.21,1.06.97,1.59,2.17,1.59,3.61,0,1.77-.88,3.26-2.62,4.48-1.75,1.22-4.09,1.84-7.01,1.84-2.68,0-4.86-.57-6.53-1.71-1.67-1.14-2.77-2.84-3.31-5.08l-8.62,1.31c.74,4.05,2.72,7.18,5.96,9.38,3.24,2.2,7.43,3.29,12.55,3.29,3.7,0,6.95-.6,9.77-1.82,2.81-1.21,5.01-2.89,6.59-5.02,1.58-2.14,2.37-4.58,2.37-7.32,0-3.24-1.04-5.88-3.1-7.91-2.07-2.03-5.21-3.53-9.42-4.5Z"/><path class="cls-2" d="M503.01,725.01c-1.93-1.83-4.11-3.17-6.53-4.03-2.43-.86-4.93-1.28-7.52-1.28-4.26,0-7.97,1-11.14,3.01-3.17,2.01-5.64,4.8-7.4,8.38-1.76,3.58-2.64,7.71-2.64,12.4s.88,8.9,2.64,12.42c1.76,3.53,4.26,6.26,7.52,8.2,3.25,1.93,7.13,2.91,11.65,2.91,3.34,0,6.32-.51,8.93-1.53,2.62-1.03,4.79-2.47,6.53-4.33,1.74-1.86,2.95-4.03,3.62-6.52l-8.44-1.52c-.53,1.43-1.31,2.63-2.32,3.61-1.01.98-2.22,1.71-3.61,2.19-1.39.49-2.93.73-4.62.73-2.61,0-4.88-.56-6.83-1.68-1.94-1.13-3.46-2.76-4.55-4.91-1-1.99-1.49-4.42-1.57-7.19h32.51v-3.16c0-4.16-.56-7.69-1.67-10.6-1.11-2.92-2.63-5.29-4.56-7.11ZM476.77,739.21c.11-1.96.53-3.82,1.41-5.53,1.01-1.96,2.44-3.55,4.3-4.78,1.86-1.22,4.04-1.83,6.55-1.83,2.31,0,4.32.52,6.04,1.58,1.72,1.05,3.06,2.49,4.01,4.31.96,1.82,1.43,3.9,1.43,6.25h-23.73Z"/><path class="cls-2" d="M551.05,722.69c-1.8-1.13-3.73-1.92-5.78-2.34-2.06-.43-4-.64-5.83-.64-2.77,0-5.4.39-7.91,1.18-2.5.78-4.71,2.03-6.63,3.75-1.92,1.72-3.38,3.97-4.37,6.76l8.38,1.91c.66-1.61,1.85-3.07,3.57-4.4,1.72-1.32,4.08-1.98,7.08-1.98s5.06.72,6.52,2.15c1.46,1.43,2.19,3.45,2.19,6.05v.21c0,1.07-.38,1.85-1.16,2.32-.77.48-2.01.82-3.73,1.03-1.71.21-3.94.47-6.68.79-2.17.26-4.29.64-6.38,1.13-2.09.5-3.98,1.23-5.67,2.21-1.69.97-3.03,2.3-4.03,3.96-.99,1.67-1.49,3.8-1.49,6.38,0,3,.68,5.54,2.04,7.61,1.36,2.07,3.22,3.64,5.56,4.73,2.34,1.08,4.97,1.62,7.87,1.62,2.53,0,4.69-.37,6.5-1.1,1.81-.74,3.29-1.66,4.44-2.77,1.15-1.11,2.02-2.24,2.6-3.4h.36v6.26h8.71v-30.42c0-3.34-.58-6.06-1.73-8.15-1.15-2.1-2.63-3.72-4.43-4.85ZM548.29,749.59c0,1.81-.46,3.5-1.39,5.08-.92,1.58-2.27,2.85-4.03,3.83-1.76.97-3.87,1.46-6.34,1.46s-4.61-.56-6.23-1.68c-1.63-1.12-2.45-2.79-2.45-4.99,0-1.59.42-2.87,1.27-3.83.84-.97,1.98-1.71,3.4-2.22,1.42-.52,2.99-.89,4.72-1.11.74-.1,1.65-.22,2.75-.37,1.09-.15,2.22-.32,3.37-.51,1.15-.19,2.18-.42,3.08-.69.9-.27,1.52-.56,1.84-.88v5.9Z"/><path class="cls-2" d="M591.9,719.61c-2.69,0-5.08.71-7.2,2.13-2.12,1.42-3.59,3.37-4.43,5.83h-.48v-7.28h-8.62v45.81h8.92v-27.97c0-1.99.48-3.76,1.43-5.32.95-1.56,2.25-2.78,3.89-3.67,1.64-.88,3.51-1.33,5.62-1.33.91,0,1.83.07,2.74.19.91.13,1.55.24,1.91.35v-8.53c-.44-.06-1.04-.11-1.8-.15-.76-.04-1.42-.06-1.98-.06Z"/><path class="cls-2" d="M616.71,729.17c1.86-1.3,4.03-1.95,6.51-1.95,2.84,0,5.12.77,6.81,2.32,1.7,1.55,2.79,3.4,3.27,5.55h8.68c-.32-3.08-1.32-5.78-2.99-8.08-1.68-2.31-3.88-4.1-6.61-5.38-2.72-1.28-5.82-1.93-9.3-1.93-4.32,0-8.07,1-11.25,3.01-3.18,2.01-5.64,4.79-7.4,8.36-1.75,3.57-2.62,7.68-2.62,12.33s.86,8.67,2.57,12.23c1.71,3.56,4.16,6.35,7.35,8.36,3.19,2.02,7.01,3.03,11.44,3.03,3.62,0,6.77-.67,9.47-2,2.69-1.33,4.85-3.16,6.46-5.49,1.61-2.32,2.57-4.97,2.89-7.93h-8.68c-.37,1.65-1.04,3.07-1.98,4.24-.94,1.17-2.11,2.07-3.49,2.7-1.38.62-2.92.94-4.61.94-2.52,0-4.71-.66-6.58-2-1.86-1.33-3.29-3.21-4.31-5.64-1.02-2.42-1.52-5.31-1.52-8.65s.52-6.09,1.55-8.49c1.04-2.39,2.48-4.24,4.34-5.54Z"/><path class="cls-2" d="M684.84,721.64c-2.36-1.29-5.1-1.94-8.25-1.94-3.56,0-6.44.73-8.65,2.18-2.21,1.45-3.85,3.41-4.92,5.87h-.57v-22.72h-8.8v61.08h8.92v-27.2c0-2.42.47-4.49,1.42-6.21.94-1.72,2.24-3.03,3.9-3.92,1.66-.9,3.55-1.35,5.65-1.35,3.08,0,5.49.93,7.22,2.79,1.73,1.86,2.6,4.47,2.6,7.83v28.06h8.92v-29.13c0-3.82-.65-7.01-1.95-9.56-1.3-2.56-3.13-4.48-5.49-5.77Z"/><path class="cls-2" d="M748.73,705.03l-21.98,61.08h9.78l5.59-16.16h23.86l5.58,16.16h9.79l-21.98-61.08h-10.65ZM744.81,742.19l9.02-26.06h.48l9,26.06h-18.5Z"/><rect class="cls-2" x="791.53" y="705.03" width="8.92" height="61.08"/><rect class="cls-2" x="814.54" y="705.03" width="8.92" height="61.08"/><rect class="cls-2" x="837.54" y="720.3" width="8.92" height="45.81"/><path class="cls-2" d="M842.04,702.58c-1.55,0-2.88.52-3.98,1.57-1.1,1.04-1.65,2.3-1.65,3.77s.55,2.69,1.65,3.74c1.11,1.05,2.43,1.56,3.98,1.56s2.88-.52,3.98-1.56c1.11-1.05,1.65-2.29,1.65-3.74s-.55-2.73-1.65-3.77c-1.1-1.05-2.43-1.57-3.98-1.57Z"/><path class="cls-2" d="M890.32,722.69c-1.8-1.13-3.73-1.92-5.79-2.34-2.06-.43-4-.64-5.83-.64-2.76,0-5.4.39-7.9,1.18-2.51.78-4.72,2.03-6.64,3.75-1.92,1.72-3.37,3.97-4.37,6.76l8.38,1.91c.66-1.61,1.84-3.07,3.56-4.4,1.72-1.32,4.08-1.98,7.09-1.98s5.05.72,6.51,2.15c1.46,1.43,2.19,3.45,2.19,6.05v.21c0,1.07-.39,1.85-1.16,2.32-.78.48-2.02.82-3.73,1.03-1.71.21-3.94.47-6.68.79-2.17.26-4.3.64-6.38,1.13-2.09.5-3.98,1.23-5.67,2.21-1.69.97-3.03,2.3-4.03,3.96-.99,1.67-1.49,3.8-1.49,6.38,0,3,.68,5.54,2.04,7.61,1.36,2.07,3.22,3.64,5.56,4.73,2.35,1.08,4.97,1.62,7.87,1.62,2.53,0,4.7-.37,6.5-1.1s3.29-1.66,4.44-2.77c1.15-1.11,2.01-2.24,2.59-3.4h.36v6.26h8.71v-30.42c0-3.34-.58-6.06-1.73-8.15-1.15-2.1-2.63-3.72-4.43-4.85ZM887.56,749.59c0,1.81-.46,3.5-1.39,5.08-.92,1.58-2.26,2.85-4.03,3.83-1.76.97-3.87,1.46-6.34,1.46s-4.6-.56-6.23-1.68c-1.63-1.12-2.45-2.79-2.45-4.99,0-1.59.42-2.87,1.27-3.83.84-.97,1.98-1.71,3.4-2.22s3-.89,4.73-1.11c.74-.1,1.65-.22,2.74-.37,1.09-.15,2.22-.32,3.37-.51,1.15-.19,2.18-.42,3.09-.69.9-.27,1.51-.56,1.83-.88v5.9Z"/><path class="cls-2" d="M941.29,721.66c-2.35-1.3-5.08-1.95-8.2-1.95-3.44,0-6.29.74-8.54,2.21-2.26,1.47-3.91,3.42-4.97,5.84h-.57v-7.46h-8.56v45.81h8.92v-27.2c0-2.42.46-4.49,1.38-6.21.93-1.72,2.19-3.03,3.79-3.92,1.6-.9,3.43-1.35,5.5-1.35,3.02,0,5.4.94,7.13,2.82,1.73,1.88,2.59,4.48,2.59,7.8v28.06h8.92v-29.13c0-3.78-.65-6.95-1.94-9.51-1.29-2.57-3.11-4.5-5.45-5.8Z"/><path class="cls-2" d="M975.55,729.17c1.86-1.3,4.03-1.95,6.51-1.95,2.84,0,5.11.77,6.81,2.32,1.7,1.55,2.79,3.4,3.27,5.55h8.68c-.32-3.08-1.32-5.78-3-8.08-1.68-2.31-3.88-4.1-6.6-5.38-2.73-1.28-5.82-1.93-9.31-1.93-4.31,0-8.06,1-11.24,3.01-3.18,2.01-5.65,4.79-7.4,8.36-1.75,3.57-2.62,7.68-2.62,12.33s.85,8.67,2.56,12.23c1.71,3.56,4.16,6.35,7.35,8.36,3.19,2.02,7,3.03,11.43,3.03,3.62,0,6.78-.67,9.47-2,2.69-1.33,4.84-3.16,6.46-5.49,1.61-2.32,2.57-4.97,2.89-7.93h-8.68c-.38,1.65-1.04,3.07-1.98,4.24-.95,1.17-2.11,2.07-3.49,2.7-1.38.62-2.92.94-4.61.94-2.53,0-4.71-.66-6.57-2-1.86-1.33-3.29-3.21-4.31-5.64-1.01-2.42-1.52-5.31-1.52-8.65s.51-6.09,1.55-8.49c1.03-2.39,2.48-4.24,4.34-5.54Z"/><path class="cls-2" d="M1051.89,742.73c0-4.16-.55-7.69-1.67-10.6-1.12-2.92-2.63-5.29-4.57-7.11-1.93-1.83-4.1-3.17-6.53-4.03-2.43-.86-4.93-1.28-7.52-1.28-4.26,0-7.97,1-11.14,3.01-3.17,2.01-5.63,4.8-7.4,8.38-1.76,3.58-2.64,7.71-2.64,12.4s.88,8.9,2.64,12.42c1.76,3.53,4.26,6.26,7.52,8.2,3.25,1.93,7.13,2.91,11.65,2.91,3.34,0,6.32-.51,8.93-1.53,2.62-1.03,4.79-2.47,6.53-4.33,1.74-1.86,2.95-4.03,3.63-6.52l-8.44-1.52c-.54,1.43-1.31,2.63-2.33,3.61-1.01.98-2.22,1.71-3.61,2.19-1.39.49-2.93.73-4.62.73-2.61,0-4.88-.56-6.83-1.68-1.95-1.13-3.47-2.76-4.55-4.91-1-1.99-1.49-4.42-1.57-7.19h32.51v-3.16ZM1019.42,739.21c.11-1.96.53-3.82,1.41-5.53,1-1.96,2.43-3.55,4.29-4.78,1.86-1.22,4.04-1.83,6.55-1.83,2.31,0,4.32.52,6.04,1.58,1.71,1.05,3.06,2.49,4.01,4.31.96,1.82,1.43,3.9,1.43,6.25h-23.73Z"/><polygon class="cls-2" points="316.35 538.53 316.35 313.05 478.06 313.05 478.06 365.26 375.99 365.26 375.99 399.77 463.04 399.77 463.04 448.61 375.99 448.61 375.99 486.14 479.58 486.14 479.58 538.53 316.35 538.53"/><polygon class="cls-1" points="547.14 538.53 547.14 475.51 621.09 475.51 655.85 538.53 547.14 538.53"/><polygon class="cls-2" points="965.62 538.53 965.62 313.05 1127.33 313.05 1127.33 365.26 1025.26 365.26 1025.26 399.77 1112.31 399.77 1112.31 448.61 1025.26 448.61 1025.26 486.14 1128.84 486.14 1128.84 538.53 965.62 538.53"/><path class="cls-2" d="M1512.46,312.88h-56.71l-71.38,176.63h-11.08c-8.95,0-16.5-.97-22.45-2.88-6.06-1.94-11.24-5-15.38-9.08-4.07-4.02-7.89-9.5-11.34-16.29l-.87-1.71,1.67-.93c24.85-13.73,37.44-36.65,37.44-68.11,0-15.07-3.59-28.64-10.68-40.3-7.08-11.66-17.03-20.87-29.58-27.36-12.59-6.51-27.16-9.81-43.29-9.81h-113.54v225.47h59.64v-64.28h11.76c3.09,0,21.36-.11,27.39-.34l1.37-.05.53,1.27c9.68,23.22,22.79,39.75,38.98,49.15,16.26,9.45,33.86,14.24,52.32,14.24h70.14l11.81-31.04h89.61l11.98,31.04h62.85l-91.19-225.64ZM1298.45,407.65c-2.39,4.55-5.65,8.2-9.69,10.86-4.08,2.68-8.61,4.03-13.49,4.03h-50.36v-57.1h50.53c4.65,0,9.1,1.39,13.24,4.12,4.06,2.69,7.33,6.15,9.73,10.27,2.42,4.17,3.64,8.45,3.64,12.72,0,5.47-1.21,10.55-3.6,15.09ZM1457.77,458.98l22.21-57.74,2.2-9.99h3.9l1.91,9.7,22.29,58.03h-52.5Z"/><path class="cls-1" d="M924.85,366.74c-10.05-16.92-24.4-30.23-42.64-39.57-18.29-9.37-39.78-14.12-63.88-14.12h-150.23c5.75,1.7,11.24,3.94,16.42,6.73,13.26,7.12,23.76,17.16,31.23,29.84,7.46,12.68,11.24,27.12,11.24,42.93s-3.72,30.33-11.07,42.84c-7,11.92-16.63,21.47-28.64,28.4l45.75,74.73h85.81c23.97,0,45.38-4.75,63.62-14.12,18.19-9.35,32.48-22.69,42.47-39.65,10.01-16.99,15.08-36.89,15.08-59.14s-5.1-41.95-15.16-58.88ZM816.47,370.88c19.03,0,33.6,4.95,43.31,14.7,9.71,9.76,14.63,23.46,14.63,40.71s-5.01,30.85-14.89,40.21c-9.94,9.41-24.42,14.18-43.05,14.18h-34.37v-109.81h34.37Z"/><path class="cls-1" d="M658.76,378.17c-2.3-4.49-5.43-8.14-9.29-10.85-3.89-2.73-8.17-4.11-12.71-4.11h-89.63v58.17h89.46c4.65,0,8.97-1.29,12.86-3.84,3.87-2.55,7-6.05,9.3-10.43,2.3-4.37,3.47-9.27,3.47-14.56s-1.17-9.9-3.46-14.38Z"/></g></svg>